<svg enable-background="new 0 0 512 512" viewBox="0 0 512 512" xmlns="http://www.w3.org/2000/svg"><path d="m507.681 209.011c-1.297-6.991-7.324-12.111-14.433-12.262-7.104-.122-13.347 4.711-14.936 11.643-15.26 66.497-73.643 112.94-141.978 112.94-80.321 0-145.667-65.346-145.667-145.666 0-68.335 46.443-126.718 112.942-141.976 6.93-1.59 11.791-7.826 11.643-14.934-.149-7.108-5.269-13.136-12.259-14.434-15.447-2.868-31.258-4.322-46.993-4.322-68.38 0-132.667 26.629-181.02 74.981-48.352 48.352-74.98 112.639-74.98 181.019s26.628 132.667 74.98 181.019c48.353 48.352 112.64 74.981 181.02 74.981s132.667-26.629 181.02-74.981c48.352-48.352 74.98-112.639 74.98-181.019 0-15.722-1.454-31.531-4.319-46.989z"/></svg>