<svg enable-background="new 0 0 512 512" viewBox="0 0 512 512" xmlns="http://www.w3.org/2000/svg"><path d="m441.554 133.088c-18.037-58.288-65.454-105.719-123.742-123.758-61.692-19.11-127.33-8.489-177.431 28.427-49.732 36.661-79.419 95.389-79.419 157.093 0 42.567 13.466 83.008 38.933 116.944l156.125 200.206 156.125-200.221c38.113-50.816 48.839-115.947 29.409-178.691zm-185.534 166.792c-57.908 0-105.031-47.123-105.031-105.031s47.123-105.031 105.031-105.031 105.031 47.123 105.031 105.031-47.123 105.031-105.031 105.031z"/><path d="m256.02 120.027c-41.365 0-75.022 33.457-75.022 74.822s33.657 75.022 75.022 75.022 75.022-33.657 75.022-75.022c.001-41.365-33.657-74.822-75.022-74.822z"/></svg>